# xmcd CD database file
#
# Track frame offsets:
#	150
#	23737
#	39638
#	63917
#	101242
#	122352
#	140511
#	167358
#	190320
#	207075
#	229113
#	254713
#
# Disc length: 3779 seconds
#
# Revision: 0
# Processed by: cddbd v1.5.2PL0 Copyright (c) Steve Scherf et al.
# Submitted via: CDex 1.70beta2
#
DISCID=a30ec10c
DTITLE=Will Downing - The Best of Will Downing (2006 - 20th Century Masters: Millennium Collection)
DYEAR=2006
DGENRE=Jazz
TTITLE0=I Try
TTITLE1=A Million Ways [Radio Edit]
TTITLE2=Don't Talk to Me Like That
TTITLE3=Wishing on a Star
TTITLE4=Crazy Love
TTITLE5=Cool Water
TTITLE6=Free
TTITLE7=Heart of Mine
TTITLE8=Stop, Look, Listen to Your Heart (w/Gerald Albright)
TTITLE9=Everytime It Rains
TTITLE10=I Can't Make You Love Me
TTITLE11=Nothing Has Ever Felt Like This (Rachelle Ferrell feat W. Downing)
EXTD=YEAR: 2006
EXTT0=
EXTT1=
EXTT2=
EXTT3=
EXTT4=
EXTT5=
EXTT6=
EXTT7=
EXTT8=
EXTT9=
EXTT10=
EXTT11=
PLAYORDER=
